<svg xmlns="http://www.w3.org/2000/svg" viewBox="0 0 350 50" width="350" height="50" role="img" aria-label="Seven Star gem atlas">
  <defs>
    <radialGradient id="gGemElectra" cx="38%" cy="28%" r="68%">
      <stop offset="0%" stop-color="#F2F9FF"/>
      <stop offset="45%" stop-color="#5EB4FF"/>
      <stop offset="100%" stop-color="#0855C8"/>
    </radialGradient>
    <filter id="glowGemElectra" x="-30%" y="-30%" width="160%" height="160%">
      <feGaussianBlur stdDeviation="2.5" result="blur"/>
      <feMerge><feMergeNode in="blur"/><feMergeNode in="SourceGraphic"/></feMerge>
    </filter>

    <radialGradient id="gGemTaygete" cx="38%" cy="28%" r="68%">
      <stop offset="0%" stop-color="#D0E8FF"/>
      <stop offset="45%" stop-color="#1060FF"/>
      <stop offset="100%" stop-color="#000EA0"/>
    </radialGradient>
    <filter id="glowGemTaygete" x="-30%" y="-30%" width="160%" height="160%">
      <feGaussianBlur stdDeviation="2.5" result="blur"/>
      <feMerge><feMergeNode in="blur"/><feMergeNode in="SourceGraphic"/></feMerge>
    </filter>

    <radialGradient id="gGemAlcyone" cx="38%" cy="28%" r="68%">
      <stop offset="0%" stop-color="#FFFFF5"/>
      <stop offset="40%" stop-color="#FFD700"/>
      <stop offset="100%" stop-color="#A87800"/>
    </radialGradient>
    <filter id="glowGemAlcyone" x="-30%" y="-30%" width="160%" height="160%">
      <feGaussianBlur stdDeviation="2.5" result="blur"/>
      <feMerge><feMergeNode in="blur"/><feMergeNode in="SourceGraphic"/></feMerge>
    </filter>

    <radialGradient id="gGemMaia" cx="38%" cy="28%" r="68%">
      <stop offset="0%" stop-color="#F0ECFF"/>
      <stop offset="45%" stop-color="#8A38FF"/>
      <stop offset="100%" stop-color="#3800D0"/>
    </radialGradient>
    <filter id="glowGemMaia" x="-30%" y="-30%" width="160%" height="160%">
      <feGaussianBlur stdDeviation="2.5" result="blur"/>
      <feMerge><feMergeNode in="blur"/><feMergeNode in="SourceGraphic"/></feMerge>
    </filter>

    <radialGradient id="gGemCelaeno" cx="38%" cy="28%" r="68%">
      <stop offset="0%" stop-color="#F8F8FC"/>
      <stop offset="45%" stop-color="#8090A8"/>
      <stop offset="100%" stop-color="#303444"/>
    </radialGradient>
    <radialGradient id="gGemCelaenoInner" cx="38%" cy="28%" r="70%">
      <stop offset="0%" stop-color="#FFFFFF"/>
      <stop offset="55%" stop-color="#C8CCD8"/>
      <stop offset="100%" stop-color="#7880A0"/>
    </radialGradient>
    <filter id="glowGemCelaeno" x="-30%" y="-30%" width="160%" height="160%">
      <feGaussianBlur stdDeviation="2.5" result="blur"/>
      <feMerge><feMergeNode in="blur"/><feMergeNode in="SourceGraphic"/></feMerge>
    </filter>

    <radialGradient id="gGemSterope" cx="38%" cy="28%" r="68%">
      <stop offset="0%" stop-color="#FFFDF0"/>
      <stop offset="40%" stop-color="#FFD700"/>
      <stop offset="100%" stop-color="#8C5800"/>
    </radialGradient>
    <filter id="glowGemSterope" x="-30%" y="-30%" width="160%" height="160%">
      <feGaussianBlur stdDeviation="2.5" result="blur"/>
      <feMerge><feMergeNode in="blur"/><feMergeNode in="SourceGraphic"/></feMerge>
    </filter>

    <radialGradient id="gGemMerope" cx="38%" cy="28%" r="68%">
      <stop offset="0%" stop-color="#FFE8E0"/>
      <stop offset="40%" stop-color="#E83820"/>
      <stop offset="100%" stop-color="#6C0010"/>
    </radialGradient>
    <filter id="glowGemMerope" x="-30%" y="-30%" width="160%" height="160%">
      <feGaussianBlur stdDeviation="2.5" result="blur"/>
      <feMerge><feMergeNode in="blur"/><feMergeNode in="SourceGraphic"/></feMerge>
    </filter>
  </defs>

  <g transform="translate(0 0)">
    <polygon points="47,25 41,10 25,3 9,10 3,25 9,40 25,47 41,40" fill="url(#gGemElectra)" stroke="#0440A8" stroke-width="1.5" filter="url(#glowGemElectra)"/>
    <polygon points="38,25 34,15 25,12 16,15 12,25 16,35 25,38 34,35" fill="#D8EEFF" opacity="0.55"/>
    <ellipse cx="17" cy="13" rx="4.5" ry="3" fill="#FFFFFF" opacity="0.45"/>
  </g>

  <g transform="translate(50 0)">
    <polygon points="25,3 37,9 46,17 48,25 46,33 37,41 25,47 13,41 4,33 2,25 4,17 13,9" fill="url(#gGemTaygete)" stroke="#000C88" stroke-width="1.5" filter="url(#glowGemTaygete)"/>
    <polygon points="25,10 33,14 39,20 41,25 39,30 33,36 25,40 17,36 11,30 9,25 11,20 17,14" fill="#C0D8FF" opacity="0.55"/>
    <ellipse cx="17" cy="14" rx="4" ry="2.5" fill="#FFFFFF" opacity="0.45"/>
  </g>

  <g transform="translate(100 0)">
    <polygon points="16,3 34,3 45,11 47,25 45,39 34,47 16,47 5,39 3,25 5,11" fill="url(#gGemAlcyone)" stroke="#906000" stroke-width="1.5" filter="url(#glowGemAlcyone)"/>
    <polygon points="20,14 30,14 36,20 37,25 36,30 30,36 20,36 14,30 13,25 14,20" fill="#FFFBE0" opacity="0.55"/>
    <ellipse cx="16" cy="12" rx="4.5" ry="2.8" fill="#FFFFFF" opacity="0.45"/>
  </g>

  <g transform="translate(150 0)">
    <circle cx="25" cy="25" r="22" fill="url(#gGemMaia)" stroke="#2800B0" stroke-width="1.5" filter="url(#glowGemMaia)"/>
    <polygon points="25,13 32,17 36,25 32,33 25,37 18,33 14,25 18,17" fill="#E8E0FF" opacity="0.55"/>
    <ellipse cx="17" cy="13" rx="4.5" ry="3" fill="#FFFFFF" opacity="0.45"/>
  </g>

  <g transform="translate(200 0)">
    <circle cx="25" cy="25" r="22" fill="url(#gGemCelaeno)" stroke="#282C3C" stroke-width="1.5" filter="url(#glowGemCelaeno)"/>
    <circle cx="25" cy="25" r="16" fill="#1C2030" opacity="0.70"/>
    <circle cx="25" cy="25" r="10" fill="url(#gGemCelaenoInner)" stroke="#4C5470" stroke-width="1.0"/>
    <ellipse cx="21" cy="20" rx="3.5" ry="2.2" fill="#FFFFFF" opacity="0.50"/>
  </g>

  <g transform="translate(250 0)">
    <polygon points="14,3 36,3 47,14 47,36 36,47 14,47 3,36 3,14" fill="url(#gGemSterope)" stroke="#6A4000" stroke-width="1.5" filter="url(#glowGemSterope)"/>
    <polygon points="20,17 30,17 33,25 30,33 20,33 17,25" fill="#FFFBE0" opacity="0.55"/>
    <ellipse cx="17" cy="13" rx="4.5" ry="2.8" fill="#FFFFFF" opacity="0.45"/>
  </g>

  <g transform="translate(300 0)">
    <path d="M 25,42 C 7,31 4,14 14,10 C 18,8 22,11 25,16 C 28,11 32,8 36,10 C 46,14 43,31 25,42 Z" fill="url(#gGemMerope)" stroke="#500010" stroke-width="1.5" filter="url(#glowGemMerope)"/>
    <path d="M 25,36 C 12,27 11,17 18,14 C 21,13 24,16 25,19 C 26,16 29,13 32,14 C 39,17 38,27 25,36 Z" fill="#FFE0D8" opacity="0.50"/>
    <ellipse cx="18" cy="14" rx="3.5" ry="2.2" fill="#FFFFFF" opacity="0.45"/>
  </g>
</svg>
