<svg xmlns="http://www.w3.org/2000/svg"
     style="position:absolute;width:0;height:0;overflow:hidden"
     aria-hidden="true"
     focusable="false">

  <!-- ========================================================= -->
  <!-- ===============  SHARED FILTERS & GRADIENTS  ============ -->
  <!-- ========================================================= -->

  <defs>

    <!-- Soft cold glow -->
    <filter id="softGlowCold" x="-50%" y="-50%" width="200%" height="200%">
      <feGaussianBlur stdDeviation="5" result="blur"/>
      <feColorMatrix type="matrix"
        values="0.8 0 0 0 0
                0 0.9 0 0 0
                0 0 1.2 0 0
                0 0 0 1 0"/>
      <feMerge>
        <feMergeNode in="blur"/>
        <feMergeNode in="SourceGraphic"/>
      </feMerge>
    </filter>

    <!-- Strong cold glow -->
    <filter id="strongGlowCold" x="-80%" y="-80%" width="260%" height="260%">
      <feGaussianBlur stdDeviation="12" result="blur"/>
      <feColorMatrix type="matrix"
        values="0.7 0 0 0 0
                0 0.8 0 0 0
                0 0 1.4 0 0
                0 0 0 1 0"/>
      <feMerge>
        <feMergeNode in="blur"/>
        <feMergeNode in="SourceGraphic"/>
      </feMerge>
    </filter>

    <!-- Cold turbulence (expanded region to avoid edge clipping) -->
    <filter id="turbulenceCold" x="-50%" y="-50%" width="200%" height="200%">
      <feTurbulence type="fractalNoise" baseFrequency="1.1" numOctaves="3" result="noise"/>
      <feColorMatrix type="matrix"
        values="0.6 0 0 0 0
                0 0.7 0 0 0
                0 0 1.0 0 0
                0 0 0 1 0"/>
      <feBlend in="SourceGraphic" in2="noise" mode="overlay"/>
    </filter>

    <!-- Cold gradients -->
    <radialGradient id="gradBlueCold" cx="50%" cy="50%" r="50%">
      <stop offset="0%" stop-color="#d0f0ff"/>
      <stop offset="50%" stop-color="#5ab8ff"/>
      <stop offset="100%" stop-color="#003c99"/>
    </radialGradient>

    <radialGradient id="gradYellowCold" cx="50%" cy="50%" r="50%">
      <stop offset="0%" stop-color="#fff9d1"/>
      <stop offset="50%" stop-color="#ffd75c"/>
      <stop offset="100%" stop-color="#8a6a00"/>
    </radialGradient>

    <radialGradient id="gradRedCold" cx="50%" cy="50%" r="50%">
      <stop offset="0%" stop-color="#ffc4c4"/>
      <stop offset="50%" stop-color="#ff4d4d"/>
      <stop offset="100%" stop-color="#660000"/>
    </radialGradient>

    <radialGradient id="gradWhiteCold" cx="50%" cy="50%" r="50%">
      <stop offset="0%" stop-color="#ffffff"/>
      <stop offset="60%" stop-color="#dff4ff"/>
      <stop offset="100%" stop-color="#8fb8d9"/>
    </radialGradient>

    <radialGradient id="gradRubyCold" cx="50%" cy="50%" r="50%">
      <stop offset="0%" stop-color="#ffd0dd"/>
      <stop offset="50%" stop-color="#ff4d6d"/>
      <stop offset="100%" stop-color="#66001a"/>
    </radialGradient>

    <radialGradient id="gradSilverCold" cx="50%" cy="50%" r="50%">
      <stop offset="0%" stop-color="#e8f7ff"/>
      <stop offset="50%" stop-color="#bcd2e0"/>
      <stop offset="100%" stop-color="#6c7a88"/>
    </radialGradient>

    <!-- Black hole gradients -->
    <radialGradient id="gradBlackHoleCoreCold" gradientUnits="userSpaceOnUse"
      cx="64" cy="64" r="40">
      <stop offset="0%" stop-color="#000000"/>
      <stop offset="100%" stop-color="#050a14"/>
    </radialGradient>

    <radialGradient id="gradAccretionCold" gradientUnits="userSpaceOnUse"
      cx="64" cy="64" r="60">
      <stop offset="0%" stop-color="#d0eaff"/>
      <stop offset="40%" stop-color="#5ab8ff"/>
      <stop offset="80%" stop-color="#003c99"/>
      <stop offset="100%" stop-color="#000000"/>
    </radialGradient>

  </defs>

  <!-- ========================================================= -->
  <!-- ======================= COSMIC TILES ==================== -->
  <!-- ========================================================= -->

  <symbol id="alcyone" viewBox="0 0 128 128">
    <circle cx="64" cy="64" r="60" fill="url(#gradBlueCold)" filter="url(#strongGlowCold)"/>
    <circle cx="64" cy="64" r="60" filter="url(#turbulenceCold)" opacity="0.25"/>
  </symbol>

  <symbol id="electra" viewBox="0 0 128 128">
    <g transform="rotate(90 64 64)">
      <circle cx="64" cy="64" r="60" fill="url(#gradBlueCold)" filter="url(#strongGlowCold)"/>
      <circle cx="64" cy="64" r="60" filter="url(#turbulenceCold)" opacity="0.25"/>
    </g>
  </symbol>

  <symbol id="maia" viewBox="0 0 128 128">
    <circle cx="64" cy="64" r="60" fill="url(#gradYellowCold)" filter="url(#strongGlowCold)"/>
    <circle cx="64" cy="64" r="60" filter="url(#turbulenceCold)" opacity="0.25"/>
  </symbol>

  <symbol id="taygete" viewBox="0 0 128 128">
    <circle cx="64" cy="64" r="60" fill="url(#gradRedCold)" filter="url(#strongGlowCold)"/>
    <circle cx="64" cy="64" r="60" filter="url(#turbulenceCold)" opacity="0.35"/>
  </symbol>

  <symbol id="celaeno" viewBox="0 0 128 128">
    <circle cx="64" cy="64" r="58" fill="url(#gradWhiteCold)" filter="url(#softGlowCold)"/>
    <circle cx="64" cy="64" r="58" filter="url(#turbulenceCold)" opacity="0.15"/>
  </symbol>

  <symbol id="sterope" viewBox="0 0 128 128">
    <path d="M64 110 L20 60 A30 30 0 0 1 64 30 A30 30 0 0 1 108 60 Z"
      fill="url(#gradRubyCold)" filter="url(#strongGlowCold)"/>
  </symbol>

  <symbol id="merope" viewBox="0 0 128 128">
    <g filter="url(#strongGlowCold)">
      <circle cx="64" cy="64" r="16" fill="url(#gradSilverCold)"/>
      <line x1="64" y1="8" x2="64" y2="120" stroke="#dff4ff" stroke-width="6" opacity="0.8"/>
      <line x1="8" y1="64" x2="120" y2="64" stroke="#dff4ff" stroke-width="6" opacity="0.8"/>
      <line x1="24" y1="24" x2="104" y2="104" stroke="#bcd2e0" stroke-width="4" opacity="0.6"/>
      <line x1="24" y1="104" x2="104" y2="24" stroke="#bcd2e0" stroke-width="4" opacity="0.6"/>
    </g>
  </symbol>

  <symbol id="atlas" viewBox="0 0 128 128">
    <circle cx="64" cy="64" r="40" fill="url(#gradBlackHoleCoreCold)" filter="url(#softGlowCold)"/>
    <circle cx="64" cy="64" r="60" fill="url(#gradAccretionCold)" opacity="0.9"/>
    <circle cx="64" cy="64" r="60" filter="url(#turbulenceCold)" opacity="0.2"/>
  </symbol>

  <!-- ========================================================= -->
  <!-- ======================= NAV / GAME ICONS ================ -->
  <!-- ========================================================= -->

  <symbol id="icon-arcade" viewBox="0 0 128 128">
    <g transform="scale(5.3) translate(2 2)"
       fill="none"
       stroke="currentColor"
       stroke-width="2"
       vector-effect="non-scaling-stroke">
      <path d="M12 2 L19 7 L19 17 L12 22 L5 17 L5 7 Z"/>
      <circle cx="9" cy="12" r="1.5" fill="currentColor"/>
      <circle cx="15" cy="12" r="1.5" fill="currentColor"/>
    </g>
  </symbol>

  <symbol id="icon-ministry" viewBox="0 0 128 128">
    <g transform="scale(5.3) translate(2 2)"
       fill="none"
       stroke="currentColor"
       stroke-width="2"
       stroke-linecap="round"
       vector-effect="non-scaling-stroke">
      <path d="M4 12 C6 10 9 9 12 10 C14 11 16 13 18 14 C16 16 13 18 10 18 C7 18 5 16 4 14 Z"/>
      <path d="M12 6 A4 4 0 0 1 16 10"/>
    </g>
  </symbol>

  <symbol id="icon-seven-stars" viewBox="0 0 128 128">
    <g transform="scale(5.3) translate(2 2)" fill="currentColor">
      <circle cx="12" cy="12" r="2"/>
      <circle cx="6" cy="6" r="1.5"/>
      <circle cx="18" cy="6" r="1.5"/>
      <circle cx="6" cy="18" r="1.5"/>
      <circle cx="18" cy="18" r="1.5"/>
      <circle cx="12" cy="4" r="1.5"/>
      <circle cx="12" cy="20" r="1.5"/>
    </g>
  </symbol>

  <symbol id="icon-earth" viewBox="0 0 128 128">
    <g>
      <circle cx="64" cy="64" r="60" fill="none" stroke="currentColor" stroke-width="8" vector-effect="non-scaling-stroke"/>
      <path d="M14 64 A50 50 0 0 0 114 64" fill="none" stroke="currentColor" stroke-width="6" vector-effect="non-scaling-stroke"/>
      <path d="M24 64 A40 40 0 0 0 104 64" fill="none" stroke="currentColor" stroke-width="4" vector-effect="non-scaling-stroke"/>
      <path d="M64 14 A50 50 0 0 1 64 114" fill="none" stroke="currentColor" stroke-width="6" vector-effect="non-scaling-stroke"/>
      <path d="M64 24 A40 40 0 0 1 64 104" fill="none" stroke="currentColor" stroke-width="4" vector-effect="non-scaling-stroke"/>
    </g>
  </symbol>

  <!-- Admin icons (used by /admin/* sidebar) -->

  <symbol id="icon-defense" viewBox="0 0 128 128">
    <path d="M64 16 L24 32 L24 64 C24 92 64 112 64 112 C64 112 104 92 104 64 L104 32 Z" fill="none" stroke="currentColor" stroke-width="8" stroke-linejoin="round" vector-effect="non-scaling-stroke"/>
    <path d="M44 64 C54 48 74 48 84 64 C74 80 54 80 44 64 Z" fill="none" stroke="currentColor" stroke-width="6" vector-effect="non-scaling-stroke"/>
    <circle cx="64" cy="64" r="5" fill="currentColor"/>
  </symbol>

  <symbol id="icon-key" viewBox="0 0 128 128">
    <circle cx="84" cy="44" r="20" fill="none" stroke="currentColor" stroke-width="8" vector-effect="non-scaling-stroke"/>
    <circle cx="84" cy="44" r="6" fill="currentColor"/>
    <path d="M70 58 L24 104 L24 84 L36 72 L48 84 L60 72 Z" fill="none" stroke="currentColor" stroke-width="8" stroke-linejoin="round" vector-effect="non-scaling-stroke"/>
  </symbol>

  <symbol id="icon-diag" viewBox="0 0 128 128">
    <rect x="16" y="32" width="96" height="64" rx="8" fill="none" stroke="currentColor" stroke-width="8" vector-effect="non-scaling-stroke"/>
    <path d="M16 64 L48 64 L56 40 L72 88 L80 64 L112 64" fill="none" stroke="currentColor" stroke-width="6" stroke-linejoin="round" vector-effect="non-scaling-stroke"/>
  </symbol>

</svg>
